<mxfile host="app.diagrams.net" modified="2023-08-24T11:29:06.080Z" agent="Mozilla/5.0 (Macintosh; Intel Mac OS X 10_15_7) AppleWebKit/605.1.15 (KHTML, like Gecko) Version/15.1 Safari/605.1.15" version="21.6.9" etag="eeAUFG_bS9oHyDK22AH6" type="github">
  <diagram name="페이지-1" id="3qmxcXc2m_bByOiqh8aV">
    <mxGraphModel>
      <root>
        <mxCell id="0" />
        <mxCell id="1" parent="0" />
      </root>
    </mxGraphModel>
  </diagram>
</mxfile>
